<svg width="302" height="416" viewBox="0 0 302 416" fill="none" xmlns="http://www.w3.org/2000/svg">
<g clip-path="url(#clip0)">
<path d="M57.3693 265.464C57.3693 267.228 58.0692 268.919 59.3151 270.167C60.561 271.414 62.2508 272.115 64.0127 272.115H167.265C169.027 272.115 170.717 271.414 171.962 270.167C173.208 268.919 173.908 267.228 173.908 265.464C173.908 263.7 173.208 262.008 171.962 260.761C170.717 259.513 169.027 258.813 167.265 258.813H64.0127C62.2508 258.813 60.561 259.513 59.3151 260.761C58.0692 262.008 57.3693 263.7 57.3693 265.464Z" fill="#F6F6F6" stroke="#BE9F6A" stroke-width="5" stroke-miterlimit="10"/>
<path d="M94.3001 282.829H133.164C134.412 282.829 135.608 282.333 136.49 281.45C137.372 280.567 137.868 279.369 137.868 278.12V272.115H89.5999V278.124C89.6007 279.371 90.0962 280.568 90.9775 281.45C91.8588 282.332 93.0538 282.828 94.3001 282.829Z" fill="#F6F6F6" stroke="#BE9F6A" stroke-width="5" stroke-miterlimit="10"/>
<path d="M118.824 364.329H108.656L108.656 282.829H118.824L118.824 364.329Z" fill="#F6F6F6" stroke="#BE9F6A" stroke-width="5" stroke-miterlimit="10"/>
<path d="M119.499 385.353H107.975C105.73 385.353 103.91 383.53 103.91 381.282V368.399C103.91 366.151 105.73 364.329 107.975 364.329H119.499C121.744 364.329 123.564 366.151 123.564 368.399V381.282C123.564 383.53 121.744 385.353 119.499 385.353Z" fill="#F6F6F6" stroke="#BE9F6A" stroke-width="5" stroke-miterlimit="10"/>
<path d="M68.7394 404.288C68.7394 399.266 70.7321 394.45 74.2791 390.899C77.8262 387.348 82.637 385.353 87.6532 385.353H139.824C144.84 385.353 149.651 387.348 153.198 390.899C156.745 394.45 158.738 399.266 158.738 404.288" stroke="#877E7C" stroke-width="5" stroke-miterlimit="10"/>
<path d="M68.3974 414.124C64.2128 414.124 60.8205 410.728 60.8205 406.539C60.8205 402.35 64.2128 398.954 68.3974 398.954C72.5819 398.954 75.9742 402.35 75.9742 406.539C75.9742 410.728 72.5819 414.124 68.3974 414.124Z" fill="#F6F6F6" stroke="#BE9F6A" stroke-width="5" stroke-miterlimit="10"/>
<path d="M159.216 414.124C155.032 414.124 151.639 410.728 151.639 406.539C151.639 402.35 155.032 398.954 159.216 398.954C163.401 398.954 166.793 402.35 166.793 406.539C166.793 410.728 163.401 414.124 159.216 414.124Z" fill="#F6F6F6" stroke="#BE9F6A" stroke-width="5" stroke-miterlimit="10"/>
<path d="M113.466 414.124C109.282 414.124 105.89 410.728 105.89 406.539C105.89 402.35 109.282 398.954 113.466 398.954C117.651 398.954 121.043 402.35 121.043 406.539C121.043 410.728 117.651 414.124 113.466 414.124Z" fill="#F6F6F6" stroke="#BE9F6A" stroke-width="5" stroke-miterlimit="10"/>
<path d="M212.238 374.575C215.619 382.606 218.698 389.19 221.047 393.51C222.794 396.722 225.837 415.458 241.834 407.909C242.399 407.643 235.523 405.867 233.354 390.367C232.594 384.934 231.898 379.693 231.264 374.645C225.006 375.07 217.067 374.811 212.238 374.575Z" fill="#FFCFC9"/>
<path d="M215.695 415.458C215.695 415.458 209.255 393.144 217.868 389.739C220.618 388.652 223.953 391.402 224.843 400.793C225.624 409.003 237.605 410.277 238.735 404.97C238.735 404.97 253.423 407.962 253.423 415.458H215.695Z" fill="#3F4D79"/>
<path d="M207.889 374.322C207.889 374.322 225.68 375.596 235.038 374.262C235.038 374.262 247.461 244.52 245.604 231.172C243.369 215.113 189.969 200.88 162.362 196.368L157.276 173.309C157.276 173.309 119.927 172.644 98.8375 172.644C98.8375 172.644 76.2499 212.882 78.5751 239.485C80.9003 266.089 129.603 260.05 194.646 260.05C194.646 260.05 174.815 300.125 207.889 374.322Z" fill="#877E7C"/>
<path d="M153.692 375.207C158.641 375.647 163.62 375.607 168.56 375.087C166.899 381.555 165.365 387.724 164.146 393.234C163.359 396.772 168.418 401.548 169.859 405.023L169.746 404.969C163.103 403.909 154.191 410.207 155.107 400.377C156.024 390.547 154.616 388.096 153.692 375.207Z" fill="#FFCFC9"/>
<path d="M155.307 393.144C153.021 393.144 149.308 397.281 149.676 403.905C149.888 407.858 150.706 411.754 152.101 415.458H177.788C177.336 408.325 169.746 404.969 169.746 404.969C163.103 403.909 154.523 410.207 155.44 400.377L155.307 393.144Z" fill="#3F4D79"/>
<path d="M135.197 208.838C135.197 208.838 191.809 219.08 198.24 236.057C204.671 253.033 174.672 374.312 174.672 374.312C157.28 376.973 148.358 374.312 148.358 374.312C130.268 291.256 151.464 263.708 151.464 263.708C109.308 261.915 82.7041 265.919 78.5719 239.505C77.2532 231.118 86.6735 199.038 135.197 208.838Z" fill="#877E7C"/>
<path d="M136.194 208.838C136.194 208.838 192.805 219.08 199.236 236.057C205.667 253.033 175.669 374.312 175.669 374.312" stroke="#F6F6F6" stroke-width="5" stroke-miterlimit="10"/>
<path d="M148.64 154.494C145.275 146.878 160.213 136.869 175.499 140.859C175.499 140.859 170.344 79.4449 158.263 71.7066C146.537 64.1977 143.714 99.5638 143.315 108.2C143.328 108.2 141.159 141.611 148.64 154.494Z" fill="#13AD7F"/>
<path d="M149.955 156.346C142.551 149.695 157.861 136.16 175.499 140.859C186.534 142.575 229.431 151.73 233.463 153.828C237.403 155.588 248.78 161.317 250.228 163.057C252.055 165.251 252.334 171.058 252.221 171.822C252.108 172.587 250.61 176.568 250.61 176.568C250.61 176.568 247.737 176.272 248.102 173.143C248.54 169.422 245.232 168.268 243.02 167.27C242.096 166.858 239.698 167.027 239.276 168.427C238.854 169.827 242.352 171.523 242.93 172.537C243.79 174.074 242.794 175.793 242.774 175.83C242.754 175.866 237.439 172.963 236.413 172.418C235.469 171.916 231.035 166.735 229.155 162.169C229.142 162.165 162.953 168.038 149.955 156.346Z" fill="#FFC0B7"/>
<path d="M158.17 38.6616C159.416 35.6321 164.578 19.956 156.213 13.1854C147.849 6.41475 136.818 -0.53211 123.471 0.54866C110.125 1.62943 106.404 19.4206 98.8409 22.2805C91.2774 25.1403 82.0497 21.7484 73.3302 29.5964C64.6107 37.4445 73.6624 49.7985 64.7768 56.3929C55.8912 62.9872 47.3278 54.6437 38.4257 66.2961C28.2214 79.6577 43.1259 95.0977 28.6399 96.4279C12.6226 97.8978 2.95975 125.047 9.83569 143.067H93.2704C146.544 134.827 158.17 38.6616 158.17 38.6616Z" fill="#BE9F6A"/>
<path d="M152.42 12.2476C144.289 5.03474 134.835 0.236126 121.462 0.891239C108.089 1.54635 102.947 16.461 95.2933 19.1346C87.6401 21.8083 77.9905 18.0339 69.0119 25.7855C60.0334 33.5371 68.6798 47.3078 59.5617 53.7692C50.4436 60.2305 42.1825 51.4048 32.895 63.0538C22.2422 76.4121 36.6219 91.6526 22.0994 92.5372C6.04224 93.5182 -4.45436 113.843 3.61076 136.889" stroke="#BE9F6A" stroke-width="5" stroke-miterlimit="10"/>
<path d="M157.529 173.076C157.529 173.076 162.259 134.481 164.76 132.459C170.377 127.917 174.845 121.402 172.503 112.407C171.174 107.329 160.495 73.6686 158.22 71.5303C155.944 69.3921 141.013 64.0481 141.013 64.0481H98.8276C94.0244 65.651 78.9438 71.0814 75.3398 76.6083C57.7347 103.598 52.1044 146.888 52.1044 146.888H73.9945C73.9945 146.888 84.531 123.214 88.2778 122.945C92.0247 122.676 99.0435 172.744 99.0435 172.744C99.0435 172.744 123.043 179.411 157.529 173.076Z" fill="#13AD7F"/>
<path d="M157.861 173.076C157.861 173.076 162.591 134.481 165.092 132.459C170.709 127.917 175.509 121.07 173.167 112.074" stroke="#F6F6F6" stroke-width="5" stroke-miterlimit="10"/>
<path d="M127.942 68.7369C127.942 68.7369 147.374 105.856 142.558 176.402" stroke="#F6F6F6" stroke-width="5" stroke-miterlimit="10"/>
<path d="M130.264 100.163C128.85 100.163 127.703 99.0146 127.703 97.5986C127.703 96.1826 128.85 95.0347 130.264 95.0347C131.679 95.0347 132.825 96.1826 132.825 97.5986C132.825 99.0146 131.679 100.163 130.264 100.163Z" stroke="#F6F6F6" stroke-width="5" stroke-miterlimit="10"/>
<path d="M133.775 118.964C132.361 118.964 131.214 117.817 131.214 116.401C131.214 114.985 132.361 113.837 133.775 113.837C135.19 113.837 136.336 114.985 136.336 116.401C136.336 117.817 135.19 118.964 133.775 118.964Z" stroke="#F6F6F6" stroke-width="5" stroke-miterlimit="10"/>
<path d="M135.652 137.833C134.238 137.833 133.091 136.685 133.091 135.269C133.091 133.853 134.238 132.705 135.652 132.705C137.066 132.705 138.213 133.853 138.213 135.269C138.213 136.685 137.066 137.833 135.652 137.833Z" stroke="#F6F6F6" stroke-width="5" stroke-miterlimit="10"/>
<path d="M54.5326 157.413C65.3713 168.823 135.446 153.566 135.446 153.566C135.446 153.566 139.1 159.345 143.378 159.552C147.657 159.758 151.706 158.245 153.878 160.08C156.051 161.916 158.243 165.112 159.944 165.441C161.963 165.854 164.035 165.942 166.082 165.7C165.356 163.694 164.519 161.729 163.578 159.814C164.87 160.862 166.474 162.784 167.414 163.585C167.806 163.95 168.308 164.172 168.841 164.216C169.373 164.26 169.905 164.123 170.351 163.828C170.351 163.828 167.544 159.538 166.438 158.391C165.332 157.244 161.94 154.364 160.06 153.709C157.838 152.758 144.827 146.376 138.333 145.319C131.447 144.201 75.6819 140.443 75.6819 140.443C55.5125 140.43 45.4311 147.836 54.5326 157.413Z" fill="#FFCFC9"/>
<path d="M163.986 165.032C163.986 165.032 159.96 158.025 158.612 157.284C156.237 155.973 153.138 154.251 153.138 154.251" stroke="#FFB0AF" stroke-width="3" stroke-miterlimit="10" stroke-linecap="round"/>
<path d="M161.203 164.905C161.203 164.905 157.645 159.142 156.297 158.401C153.922 157.091 150.822 155.368 150.822 155.368" stroke="#FFB0AF" stroke-width="3" stroke-miterlimit="10" stroke-linecap="round"/>
<path d="M123.93 38.1395C123.93 38.1395 118.06 56.5658 98.8408 64.0481C98.8408 64.0481 125.8 75.8069 141.027 64.0481V38.6716L123.93 38.1395Z" fill="#FFCFC9"/>
<path d="M137.134 66.4457C138.507 65.7827 139.807 64.9792 141.014 64.0481V38.6716L123.93 38.1395C123.93 38.1395 123.764 38.6583 123.399 39.5595C121.655 47.3377 126.372 63.4761 137.134 66.4457Z" fill="#FFC0B7"/>
<path d="M124.378 40.9761C124.554 47.0351 135.944 61.2879 142.173 61.2879C147.334 61.2879 156.971 45.7016 158.187 38.6749C159.432 31.4454 158.17 18.6225 147.873 18.4429C141.508 18.3332 138.24 24.319 136.33 31.2592C134.004 39.636 126.869 37.7571 126.869 37.7571C126.869 37.7571 124.827 33.1015 121.98 35.4293C119.133 37.7571 124.378 40.9761 124.378 40.9761Z" fill="#FFCFC9"/>
<path d="M289.836 415.458L273.227 186.391L256.619 415.94" stroke="#BE9F6A" stroke-width="5" stroke-miterlimit="10"/>
<path d="M291.294 186.391H72.616C71.2498 186.391 69.9396 185.848 68.973 184.882C68.0063 183.915 67.4624 182.604 67.4606 181.237C67.4606 179.868 68.0038 178.555 68.9706 177.587C69.9374 176.619 71.2487 176.076 72.616 176.076H291.294V186.391Z" fill="#F6F6F6"/>
<path d="M291.294 186.391H72.616C71.2498 186.391 69.9396 185.848 68.973 184.882C68.0063 183.915 67.4624 182.604 67.4607 181.237V181.237C67.4607 179.868 68.0038 178.555 68.9706 177.587C69.9374 176.619 71.2487 176.076 72.616 176.076H291.294" stroke="#BE9F6A" stroke-width="5" stroke-miterlimit="10"/>
<path d="M204.674 98.207H292.922C293.894 98.2078 294.852 98.4436 295.714 98.8942C296.576 99.3449 297.316 99.9971 297.873 100.796C298.429 101.594 298.784 102.515 298.909 103.481C299.034 104.446 298.924 105.427 298.589 106.341L276.333 166.864H172.995L196.014 104.256C196.666 102.482 197.846 100.951 199.394 99.8689C200.943 98.7872 202.786 98.2072 204.674 98.207V98.207Z" stroke="black" stroke-miterlimit="10"/>
<path d="M203.88 98.207H292.454C296.549 98.207 299.393 102.553 297.978 106.654L278.712 162.658C278.327 163.861 277.576 164.915 276.563 165.669C275.55 166.424 274.327 166.841 273.065 166.864H173.985L195.433 104.492C196.735 100.714 200.107 98.207 203.88 98.207Z" fill="#F6F6F6"/>
<path d="M207.534 102.4H296.107C297.056 102.4 297.99 102.629 298.831 103.069C299.672 103.508 300.394 104.144 300.937 104.923C301.479 105.702 301.826 106.6 301.947 107.542C302.068 108.484 301.959 109.441 301.631 110.332L282.365 162.914C281.942 164.072 281.173 165.072 280.163 165.778C279.153 166.485 277.951 166.864 276.718 166.864H177.638L199.087 108.3C199.723 106.569 200.874 105.076 202.384 104.021C203.895 102.966 205.692 102.401 207.534 102.4Z" fill="#FFA665"/>
<path d="M276.539 166.864H107.51C105.154 166.864 102.894 167.801 101.227 169.47C99.5611 171.138 98.6249 173.4 98.6249 175.76H267.653C270.01 175.76 272.27 174.823 273.937 173.154C275.603 171.486 276.539 169.223 276.539 166.864Z" fill="#F6F6F6" stroke="#877E7C" stroke-width="6" stroke-miterlimit="10"/>
<path d="M204.674 98.207H292.922C293.894 98.2078 294.852 98.4436 295.714 98.8942C296.576 99.3449 297.316 99.9971 297.873 100.796C298.429 101.594 298.784 102.515 298.909 103.481C299.034 104.446 298.924 105.427 298.589 106.341L276.333 166.864H172.995L196.014 104.256C196.666 102.482 197.846 100.951 199.394 99.8689C200.943 98.7872 202.786 98.2072 204.674 98.207V98.207Z" stroke="#877E7C" stroke-width="5" stroke-miterlimit="10"/>
<path d="M237.158 142.15C235.067 139.826 235.694 135.848 238.559 133.266C241.423 130.684 245.44 130.475 247.53 132.8C249.621 135.124 248.993 139.102 246.129 141.683C243.265 144.265 239.248 144.474 237.158 142.15Z" fill="#BE9F6A"/>
<path d="M235.127 140.033C233.037 137.709 233.664 133.731 236.529 131.149C239.393 128.567 243.41 128.358 245.5 130.683C247.591 133.007 246.963 136.984 244.099 139.566C241.235 142.148 237.218 142.357 235.127 140.033Z" stroke="#877E7C" stroke-width="5" stroke-miterlimit="10"/>
</g>
<defs>
<clipPath id="clip0">
<rect width="302" height="416" fill="white" transform="matrix(-1 0 0 1 302 0)"/>
</clipPath>
</defs>
</svg>
